<?xml version="1.0" standalone="no"?>
<!DOCTYPE svg PUBLIC "-//W3C//DTD SVG 20010904//EN"
 "http://www.w3.org/TR/2001/REC-SVG-20010904/DTD/svg10.dtd">
<svg version="1.0" xmlns="http://www.w3.org/2000/svg"
 width="900.000000pt" height="757.000000pt" viewBox="0 0 900.000000 757.000000"
 preserveAspectRatio="xMidYMid meet">

<g transform="translate(0.000000,757.000000) scale(0.100000,-0.100000)"
fill="#000000" stroke="none">
<path d="M4390 6281 c-365 -34 -679 -267 -815 -605 -68 -168 -68 -167 -72
-841 -5 -760 0 -817 93 -1014 125 -265 350 -455 632 -533 69 -20 103 -22 334
-22 l258 -1 0 -178 0 -177 33 -36 c30 -33 44 -38 247 -89 118 -30 233 -55 255
-55 133 0 182 173 70 246 -14 9 -78 29 -142 46 -65 16 -135 34 -155 39 l-38
10 0 144 c0 134 1 144 20 150 44 14 180 113 246 179 124 124 213 282 256 452
23 88 23 95 23 779 l0 690 -23 85 c-100 364 -388 641 -744 714 -90 19 -357 28
-478 17z m444 -291 c128 -32 228 -91 327 -190 69 -68 94 -103 127 -170 79
-160 76 -132 80 -814 3 -645 1 -694 -43 -819 -35 -102 -81 -172 -170 -262 -59
-60 -101 -91 -160 -121 -135 -70 -188 -79 -435 -79 -210 0 -217 1 -295 28
-198 70 -337 193 -421 374 -64 136 -64 133 -64 834 0 600 1 640 20 713 68 268
276 459 565 520 11 2 104 4 206 5 155 1 199 -2 263 -19z"/>
<path d="M3955 3046 c-267 -68 -460 -124 -650 -188 -547 -184 -835 -349 -923
-527 l-27 -56 0 -240 c0 -237 0 -240 24 -274 47 -65 -52 -61 1538 -61 1384 0
1450 1 1482 18 86 46 94 169 15 231 l-27 21 -1378 0 -1379 0 0 124 c0 145 2
149 110 221 219 145 732 330 1320 474 187 47 225 62 247 105 48 92 -19 207
-119 206 -13 0 -117 -25 -233 -54z"/>
<path d="M6258 2978 c-64 -37 -68 -57 -68 -312 l0 -226 -231 0 c-196 0 -235
-2 -259 -16 -63 -38 -83 -134 -39 -195 38 -54 65 -59 309 -59 l220 0 0 -227
c0 -208 2 -231 20 -260 51 -84 179 -84 230 0 18 29 20 52 20 260 l0 227 220 0
c244 0 271 5 309 59 44 61 24 157 -39 195 -24 14 -63 16 -259 16 l-231 0 0
226 c0 256 -4 276 -69 312 -49 28 -86 27 -133 0z"/>
</g>
</svg>
